<?xml version="1.0" encoding="UTF-8" standalone="no"?>
<svg fill="#fff" xmlns="http://www.w3.org/2000/svg" viewBox="0 0 512 512">
    <title>warning</title>
    <g id="warning">
        <path d="M285.76,97.43a35,35,0,0,0-59.52,0L51.94,377.54A35.05,35.05,0,0,0,81.7,431.11H430.3a35.05,35.05,0,0,0,29.76-53.57ZM256,385.49h0A16.76,16.76,0,1,1,256,352h0a16.76,16.76,0,1,1,0,33.51Zm16.76-76.27A16.76,16.76,0,0,1,256,326h0a16.76,16.76,0,0,1-16.76-16.76V195.93A16.75,16.75,0,0,1,256,179.18h0a16.75,16.75,0,0,1,16.76,16.75Z"/>
    </g>
</svg>