<svg width="30" height="30" viewBox="0 0 30 30" fill="none" xmlns="http://www.w3.org/2000/svg">
    <path d="M15 0C6.72088 0 0 6.73662 0 15C0 23.2634 6.73662 30 15 30C23.2634 30 30 23.2634 30 15C30 6.73662 23.2791 0 15 0ZM15 27.6548C8.02728 27.6548 2.36097 21.9885 2.36097 15.0157C2.36097 8.04302 8.02728 2.37671 15 2.37671C21.9727 2.37671 27.639 8.04302 27.639 15.0157C27.639 21.9885 21.9727 27.6548 15 27.6548Z" fill="white"/>
    <path d="M16.3716 12.1051H18.6066L15.4744 15.2373L13.1135 12.8764L7.73047 18.2594L9.39888 19.9278L13.1135 16.2132L15.4744 18.5742L20.2751 13.7735V16.0086H22.636V9.74414H16.3716V12.1051Z" fill="white"/>
</svg>