<?xml version="1.0" encoding="UTF-8"?>
<!DOCTYPE svg PUBLIC "-//W3C//DTD SVG 1.1//EN" "http://www.w3.org/Graphics/SVG/1.1/DTD/svg11.dtd">
<!-- Creator: CorelDRAW -->
<svg xmlns="http://www.w3.org/2000/svg" xml:space="preserve" width="1.70666in" height="1.70666in" version="1.1" style="shape-rendering:geometricPrecision; text-rendering:geometricPrecision; image-rendering:optimizeQuality; fill-rule:evenodd; clip-rule:evenodd"
viewBox="0 0 1707 1707"
 xmlns:xlink="http://www.w3.org/1999/xlink">
 <defs>
  <style type="text/css">
   <![CDATA[
    .fil0 {fill:black}
   ]]>
  </style>
 </defs>
 <g id="Layer_x0020_1">
  <metadata id="CorelCorpID_0Corel-Layer"/>
  <g id="_491732160">
   <g>
    <g>
     <path class="fil0" d="M1290 1707l-1215 0c-13,0 -25,-12 -25,-25l0 -1656c0,-14 12,-25 25,-25l928 0c14,0 24,11 25,23l4 254 258 -3c14,0 25,11 25,24 0,0 0,0 0,0l0 593c0,14 -11,25 -25,25 -14,0 -25,-11 -25,-25l0 -568 -258 3c-14,0 -25,-12 -25,-24l-2 -254 -881 0 0 1609 1191 0c14,0 25,11 25,25 0,14 -11,24 -25,24z"/>
    </g>
    <g>
     <path class="fil0" d="M1290 322c-5,0 -12,-2 -16,-7l-287 -273c-10,-9 -10,-25 -2,-34 10,-10 25,-10 35,-2l287 273c10,10 10,25 1,35 -5,6 -11,8 -18,8z"/>
    </g>
    <g>
     <path class="fil0" d="M779 1195l-600 0c-13,0 -25,-11 -25,-25 0,-14 12,-25 25,-25l601 0c14,0 25,11 25,25 0,14 -13,25 -26,25z"/>
    </g>
    <g>
     <path class="fil0" d="M844 1500l-665 0c-13,0 -25,-11 -25,-25 0,-14 12,-25 25,-25l665 0c14,0 25,11 25,25 0,14 -13,25 -25,25z"/>
    </g>
    <g>
     <path class="fil0" d="M620 689l-441 0c-13,0 -25,-12 -25,-25 0,-14 12,-25 25,-25l441 0c14,0 25,11 25,25 0,13 -11,25 -25,25z"/>
    </g>
    <g>
     <path class="fil0" d="M731 942l-552 0c-13,0 -25,-11 -25,-25 0,-13 12,-25 25,-25l552 0c14,0 25,12 25,25 0,14 -11,25 -25,25z"/>
    </g>
    <g>
     <path class="fil0" d="M1290 1707c0,0 0,0 0,0 -1,0 -1,0 -2,0 -102,-10 -182,-53 -243,-128 -157,-198 -114,-548 -113,-563 2,-11 12,-20 23,-21 255,-22 312,-110 314,-114 3,-4 6,-7 10,-9 11,-6 27,-2 33,9 2,3 59,92 315,114 11,1 21,10 22,21 2,15 46,365 -112,562 -59,74 -141,117 -243,127 -2,2 -2,2 -4,2zm-310 -665c-7,75 -21,351 104,506 51,64 120,102 206,110 86,-8 156,-46 207,-110 125,-156 111,-431 104,-506 -190,-19 -276,-76 -311,-111 -34,34 -120,90 -310,111z"/>
    </g>
    <g>
     <path class="fil0" d="M1239 1451c0,0 0,0 0,0 -7,0 -14,-2 -18,-7 -1,-1 -3,-2 -4,-4l-124 -120c-23,-25 -23,-63 -1,-88 24,-23 64,-23 87,0l59 58 160 -160c12,-12 27,-18 43,-18 17,0 32,6 43,18 12,11 18,26 18,43 0,16 -6,31 -19,44l-225 225c-1,1 -2,2 -4,4 -3,3 -8,5 -15,5zm-101 -190c-3,0 -7,2 -9,3 -4,6 -4,14 0,20l110 108 212 -212c4,-3 4,-7 4,-9 0,-1 0,-5 -4,-8 0,0 -1,-2 -1,-2 -3,-2 -7,-4 -9,-4 -1,0 -5,0 -8,4l-177 179c-5,5 -11,7 -17,7l0 0c-6,0 -13,-2 -17,-7l-75 -75c-2,-2 -7,-4 -9,-4z"/>
    </g>
   </g>
  </g>
 </g>
</svg>
