<svg width="150" height="150" viewBox="0 0 150 150" fill="none" xmlns="http://www.w3.org/2000/svg">
<mask id="mask0" mask-type="alpha" maskUnits="userSpaceOnUse" x="26" y="25" width="99" height="100">
<path fill-rule="evenodd" clip-rule="evenodd" d="M26 25H124.943V125H26V25Z" fill="white"/>
</mask>
<g mask="url(#mask0)">
<path fill-rule="evenodd" clip-rule="evenodd" d="M124.943 74.9558C124.943 46.4159 103.928 24.9998 75.471 24.9998C47.4518 24.9998 26 46.4159 26 74.9558C26 103.584 47.4518 125 75.471 125C103.928 125 124.943 103.584 124.943 74.9558V74.9558ZM116.624 74.9559C116.624 99.3365 99.1122 117.124 75.471 117.124C51.8299 117.124 34.3177 99.3365 34.3177 74.9559C34.3177 50.5753 51.8299 32.7872 75.471 32.7872C99.1122 32.7872 116.624 50.5753 116.624 74.9559V74.9559ZM61.8999 101.151V56.2386H54.8947C50.9544 56.2386 49.2028 57.8314 49.2028 61.8138V101.151H61.8999ZM89.0429 101.151H101.739V61.8138C101.739 57.8314 99.9877 56.2386 96.0481 56.2386H89.0429V101.151ZM82.0384 101.15V49.026C82.0384 44.8231 80.2868 43.4508 76.3465 43.4508H64.5262V49.2035H65.8394C68.0288 49.2035 68.9042 50.044 68.9042 52.6104V101.15H82.0384Z" fill="white"/>
</g>
</svg>
