<svg width="150" height="150" viewBox="0 0 150 150" fill="none" xmlns="http://www.w3.org/2000/svg">
<path fill-rule="evenodd" clip-rule="evenodd" d="M28.2479 37.6574C27.3545 32.16 27.8564 31.0113 46.2718 31.0113L72.1682 31C109 31 125 47.6291 125 74.9894C125 101.328 109.911 118.979 73.3532 118.979H25.3077C24.8974 117.704 24.8974 115.656 25.3077 113.995C38.9877 113.229 41.4171 112.33 41.4171 103.762V43.4099C41.4171 38.4321 40.1364 37.6574 34.3836 37.6574H28.2479ZM57.3941 38.5549V102.875L57.3989 102.91C57.3989 110.705 60.2068 111.981 72.1042 111.981C93.9664 111.981 107.901 104.961 107.901 77.4288C107.901 52.8681 95.1196 38.5549 70.5681 38.5549H57.3941Z" fill="#F9F9F9"/>
</svg>
