<svg width="150" height="150" viewBox="0 0 150 150" fill="none" xmlns="http://www.w3.org/2000/svg">
<path d="M36.7644 70C33.7622 70 31.2927 72.0796 31.2927 75.5384C31.2927 78.7808 32.9664 80.8136 36.3828 80.8136C39.4174 80.8136 41.8577 78.7189 41.8577 75.2601C41.8577 71.6766 39.7489 70 36.7644 70ZM66.7973 70C64.1112 70 62.5383 71.2871 62.5383 73.1488C62.5383 76.5614 67.263 75.6783 67.263 77.68C67.263 78.6415 66.3847 79.0593 65.2903 79.0593C64.4775 79.0593 63.583 78.8892 62.9522 78.6872L62.8196 80.5626C63.5167 80.7335 64.3101 80.8136 65.106 80.8136C67.8591 80.8136 69.5364 79.3693 69.5364 77.3987C69.5364 74.157 64.7923 74.8231 64.7923 72.9462C64.7923 72.2017 65.4571 71.6757 66.7003 71.6757C67.3804 71.6757 68.0752 71.7831 68.7053 71.954L68.8217 70.1875C68.1585 70.0786 67.4281 70 66.7973 70ZM104.695 70.0151C100.814 70.0151 98.4245 72.3587 98.4245 75.6473C98.4245 78.8428 100.532 80.7955 104.081 80.7955C105.424 80.7955 106.801 80.5642 107.913 80.1452V75.1512H105.756V78.7961C105.325 78.9202 104.86 78.9806 104.33 78.9806C102.058 78.9806 100.763 77.6779 100.763 75.4598C100.763 73.1176 102.357 71.8149 104.562 71.8149C105.607 71.8149 106.632 72.0152 107.528 72.3412L107.861 70.4658C106.899 70.2018 105.806 70.0151 104.695 70.0151ZM20 70.1694L23.8968 80.6412H26.3675L30.2805 70.1694H28.075L25.8695 76.1736C25.5379 77.0573 25.3562 77.6471 25.1904 78.3605H25.1548C24.9558 77.6003 24.707 76.887 24.4918 76.2976L22.3219 70.1694H20ZM44.4933 70.1694V80.6412H50.2819V78.8717H46.6503V70.1694H44.4933ZM52.6039 70.1694V80.6412H54.7576V75.614L58.3731 80.6412H61.193L56.9146 75.2268L61.0119 70.1694H58.3892L54.7576 74.9183V70.1694H52.6039ZM71.2277 70.1694L74.08 80.6412H76.5668L78.1902 74.8246C78.3899 74.127 78.5403 73.4274 78.6236 72.6981H78.6397C78.7561 73.4432 78.8878 74.2027 79.0698 74.8699L80.6965 80.6412H83.3321L86.1843 70.1694H84.0306L82.5042 76.0193C82.3384 76.6397 82.1898 77.3046 82.0741 78.0339H82.0547C81.9552 77.3046 81.7742 76.5602 81.6084 75.9861L79.8815 70.1694H77.6113L75.9039 76.0193C75.7049 76.6866 75.5708 77.3998 75.4544 78.0974H75.4382C75.3387 77.3681 75.207 76.6382 75.0243 75.9558L73.4979 70.1694H71.2277ZM90.6309 70.1694L86.7179 80.6412H88.8878L89.6672 78.4997H93.9294L94.7088 80.6412H97.0663L93.0692 70.1694H90.6309ZM111.476 70.1694V80.6412H117.563V78.9201H113.633V76.0798H117.365V74.4374H113.633V71.8602H117.563V70.1694H111.476ZM120.732 70.1694V80.6412H122.821V76.9026C122.821 75.6467 122.787 73.8789 122.721 72.9794C123.052 73.6618 123.566 74.4846 124.046 75.2752L127.364 80.6412H130V70.1694H127.911V73.4271C127.911 74.7147 127.944 76.701 128.027 77.7556C127.612 76.9643 127.05 76.0333 126.553 75.2268L123.4 70.1694H120.732ZM36.5671 71.8149C38.4905 71.8149 39.552 73.088 39.552 75.4144C39.552 77.9275 37.9906 78.9806 36.5315 78.9806C34.5242 78.9806 33.5984 77.5387 33.5984 75.3206C33.5984 72.9626 35.0247 71.8149 36.5671 71.8149ZM91.7563 72.4803H91.7919C91.9414 73.0697 92.107 73.5819 92.3222 74.1561L93.3668 76.9026H90.217L91.2259 74.2347C91.4581 73.6302 91.6236 73.0235 91.7563 72.4803Z" fill="white"/>
</svg>
