<svg width="150" height="150" viewBox="0 0 150 150" fill="none" xmlns="http://www.w3.org/2000/svg">
<path d="M88.3713 31.9999C86.5582 31.9999 81.1683 31.9999 74.9044 39.6059V39.6059C74.985 39.702 75.0656 39.798 75.1493 39.8972V39.8972C76.7579 38.0159 78.7756 36.0912 80.942 34.6902V34.6902C82.9443 33.4009 85.2657 32.5392 87.1873 32.3285V32.3285C88.5883 32.1735 93.2219 32.2324 98.497 32.2324V32.2324C98.5249 32.2324 98.5404 32.2448 98.5528 32.2603V32.2603L98.4165 32.0309C98.4072 32.0092 98.3886 31.9999 98.3669 31.9999V31.9999L88.3713 31.9999Z" fill="url(#paint0_radial)"/>
<path d="M51.6341 32.0001C51.6155 32.0001 51.5938 32.0063 51.5814 32.028V32.028L31.9622 66.0098L25.8099 76.6655L25.0971 77.9022L25.0041 78.0602C24.9979 78.0726 24.9979 78.0943 25.0103 78.1191V78.1191L43.6996 110.489V110.356C43.2936 109.612 43.0023 109.039 42.8473 108.679V108.679C42.0663 106.909 41.6231 104.461 41.7377 102.081V102.081C42.0539 95.8136 45.3857 89.6303 47.0625 86.7293V86.7293C50.9925 79.923 58.5892 66.7598 58.5892 66.7598V66.7598C58.5892 66.7598 66.1889 53.5967 70.1189 46.7873V46.7873C71.7926 43.8894 75.484 37.9106 80.7561 34.5044V34.5044C82.7552 33.2119 85.1045 32.3751 87.02 32.1643V32.1643C88.424 32.0063 93.0855 32.0001 98.3669 32.0001V32.0001L51.6341 32.0001Z" fill="url(#paint1_radial)"/>
<path fill-rule="evenodd" clip-rule="evenodd" d="M114.016 92.1159C116.136 91.0311 118.033 89.4164 119.176 87.8605C119.991 86.754 122.229 82.9014 124.783 78.4786L101.624 118.588C101.615 118.603 101.593 118.619 101.578 118.619L48.4263 118.619C48.4077 118.619 48.386 118.606 48.3767 118.591L30.7287 88.0216L26.0393 79.895C28.2399 83.7042 30.0995 86.8717 30.8248 87.8605C31.9685 89.4164 33.8653 91.0311 35.9884 92.1159C41.5673 94.9767 48.5937 95.1843 51.941 95.1843H75.0005L98.0632 95.1843C101.411 95.1843 108.428 94.9767 114.016 92.1159ZM25.1654 78.3764C25.4598 78.8909 25.7512 79.3992 26.0394 79.8951L25.1654 78.3764Z" fill="url(#paint2_radial)"/>
<path d="M87.02 32.1645C85.1045 32.3752 82.7552 33.2121 80.7561 34.5045V34.5045C78.5493 35.9302 76.6215 37.8054 75.0005 39.7177V39.7177C77.2538 42.3739 78.9088 45.0983 79.882 46.7874V46.7874C83.8121 53.5968 91.4149 66.76 91.4149 66.76V66.76C91.4149 66.76 99.0115 79.9231 102.945 86.7294V86.7294C104.615 89.6304 107.95 95.8137 108.26 102.081V102.081C108.378 104.461 107.929 106.91 107.157 108.679V108.679C106.614 109.916 104.46 113.676 101.959 118.009V118.009L124.997 78.11C124.997 78.1069 125 78.1038 125 78.0976V78.0976V78.0728C125 78.0666 124.997 78.0604 124.994 78.0573V78.0573L98.4165 32.0312C98.4072 32.0095 98.3886 32.0002 98.3669 32.0002V32.0002C93.0855 32.0002 88.424 32.0064 87.02 32.1645" fill="url(#paint3_radial)"/>
<defs>
<radialGradient id="paint0_radial" cx="0" cy="0" r="1" gradientUnits="userSpaceOnUse" gradientTransform="translate(107.156 108.676) scale(77.1804 25.774)">
<stop stop-color="#FEDF33"/>
<stop offset="0.440002" stop-color="#FBB809"/>
<stop offset="0.899994" stop-color="#EE960D"/>
<stop offset="1" stop-color="#E17A10"/>
</radialGradient>
<radialGradient id="paint1_radial" cx="0" cy="0" r="1" gradientUnits="userSpaceOnUse" gradientTransform="translate(87.0024 31.9982) scale(77.2371 82.6297)">
<stop stop-color="#FEDF33"/>
<stop offset="0.440002" stop-color="#FBB809"/>
<stop offset="0.899994" stop-color="#EE960D"/>
<stop offset="1" stop-color="#E17A10"/>
</radialGradient>
<radialGradient id="paint2_radial" cx="0" cy="0" r="1" gradientUnits="userSpaceOnUse" gradientTransform="translate(30.7276 88.0212) scale(77.2064 31.189)">
<stop stop-color="#FEDF33"/>
<stop offset="0.440002" stop-color="#FBB809"/>
<stop offset="0.899994" stop-color="#EE960D"/>
<stop offset="1" stop-color="#E17A10"/>
</radialGradient>
<radialGradient id="paint3_radial" cx="0" cy="0" r="1" gradientUnits="userSpaceOnUse" gradientTransform="translate(107.105 108.927) scale(77.4226 133.181)">
<stop stop-color="#FEDF33"/>
<stop offset="0.440002" stop-color="#FBB809"/>
<stop offset="0.899994" stop-color="#EE960D"/>
<stop offset="1" stop-color="#D87301"/>
</radialGradient>
</defs>
</svg>
