<svg width="150" height="150" viewBox="0 0 150 150" fill="none" xmlns="http://www.w3.org/2000/svg">
<path fill-rule="evenodd" clip-rule="evenodd" d="M77.0435 50.8261L77.1346 50.6957C77.9042 49.569 77.5828 48.736 77.0671 48.2876L68.9865 43.3046C68.4271 42.9279 68.0582 42.2892 68.0582 41.5591C68.0582 40.4087 68.7445 39.5399 70.3075 39.1075C75.2901 37.7389 92.8164 37.0208 98.7709 37.0208C100.838 37.0208 104.396 37.0129 107.59 37.0995L107.451 36.9646C98.7193 29.5025 87.3855 25 74.9965 25C47.382 25 25 47.382 25 74.9965C25 87.1356 29.3241 98.2631 36.5203 106.923C42.8001 97.8942 58.3032 75.6272 61.703 71.0811C65.6184 65.8406 74.5443 54.1814 76.0557 52.2059L76.131 52.1159L77.0435 50.8261Z" fill="white"/>
<path fill-rule="evenodd" clip-rule="evenodd" d="M44.5107 114.634C52.9486 121.132 63.5207 125 74.9973 125C102.612 125 124.994 102.618 124.994 75.0035C124.994 66.645 122.947 58.7703 119.321 51.8479L119.325 51.8519C121.047 50.1937 123.03 47.5675 121.725 44.2788C121.32 43.2994 119.377 41.0774 118.877 40.5379L118.944 40.728C120.162 44.4014 117.754 46.7023 116.024 48.2693C115.076 49.1295 102.382 61.0986 87.4935 74.1185C74.3706 85.5911 59.6926 97.2661 51.1912 103.633C39.2306 112.587 36.902 113.888 36.902 113.888C36.5886 114.059 36.061 114.205 35.6722 114.205C34.9423 114.205 34.3076 113.876 33.9069 113.356L33.8945 113.334L33.8664 113.718C35.1477 115.793 37.2741 118.201 38.5118 118.201C38.9005 118.201 39.4282 118.055 39.7455 117.887C39.7455 117.887 40.6817 117.363 44.5099 114.63" fill="white"/>
<path fill-rule="evenodd" clip-rule="evenodd" d="M77.1119 50.6952C77.8815 49.573 77.5602 48.7355 77.0445 48.2872L68.9636 43.3086C68.4043 42.9319 68.0353 42.2932 68.0353 41.5591C68.0353 40.4127 68.7216 39.5439 70.2846 39.1076C75.2712 37.7389 92.7936 37.0249 98.7481 37.0249C101.561 37.0249 107.126 37.0024 110.792 37.2464C114.902 37.5163 118.024 38.3653 118.797 40.3566C120.317 44.2522 117.802 46.6562 116.013 48.2748C115.065 49.1396 102.37 61.1081 87.4857 74.124C74.3588 85.5966 59.6807 97.2756 51.1794 103.643C39.2188 112.592 36.8941 113.893 36.8941 113.893C36.5768 114.064 36.0492 114.211 35.6643 114.211C34.4227 114.211 33.4507 113.263 33.4507 112.021C33.4507 111.548 33.5936 111.109 33.8395 110.751C33.8395 110.751 57.3957 76.8213 61.6801 71.085C65.9645 65.3486 76.255 51.9281 76.255 51.9281C76.255 51.9281 76.374 51.7741 77.1119 50.6944" fill="#E2001A"/>
</svg>
