<svg width="150" height="150" viewBox="0 0 150 150" fill="none" xmlns="http://www.w3.org/2000/svg">
<mask id="mask0" mask-type="alpha" maskUnits="userSpaceOnUse" x="25" y="67" width="100" height="16">
<path fill-rule="evenodd" clip-rule="evenodd" d="M25 82.7566L125 82.7566V67L25 67L25 82.7566V82.7566Z" fill="white"/>
</mask>
<g mask="url(#mask0)">
<path fill-rule="evenodd" clip-rule="evenodd" d="M40.9971 73.4737C40.9971 69.1784 43.276 67.0006 47.772 67.0006C52.3534 67.0006 54.4873 69.0577 54.4873 73.4737V76.2833C54.4873 80.5794 52.228 82.7572 47.772 82.7572C43.1498 82.7572 40.9971 80.7001 40.9971 76.2833V73.4737ZM47.7718 69.4018C44.6321 69.4018 43.5189 70.4671 43.5189 73.4736V76.2833C43.5189 79.2521 44.6713 80.3559 47.7718 80.3559C50.8285 80.3559 51.9652 79.2521 51.9652 76.2833V73.4736C51.9652 70.5056 50.8285 69.4018 47.7718 69.4018Z" fill="white"/>
<path fill-rule="evenodd" clip-rule="evenodd" d="M73.238 73.4737C73.238 69.1784 75.517 67.0006 80.0129 67.0006C84.5944 67.0006 86.7283 69.0577 86.7283 73.4737V76.2833C86.7283 80.5794 84.4689 82.7572 80.0129 82.7572C75.3908 82.7572 73.238 80.7001 73.238 76.2833V73.4737ZM80.0128 69.4018C76.8731 69.4018 75.7599 70.4671 75.7599 73.4736V76.2833C75.7599 79.2521 76.9123 80.3559 80.0128 80.3559C83.0694 80.3559 84.2054 79.2521 84.2054 76.2833V73.4736C84.2054 70.5056 83.0694 69.4018 80.0128 69.4018Z" fill="white"/>
<path d="M28.1672 79.6025C29.2333 79.3078 30.0157 78.331 30.0157 77.1715C30.0157 76.9559 29.9891 76.7466 29.9381 76.5467V76.5467L27.5604 67.3023H25L27.9414 78.8241C28.0151 79.1 28.0896 79.3595 28.1672 79.6025" fill="white"/>
<path d="M36.7586 67.3024L33.8336 78.792C33.466 80.1412 33.0223 80.356 32.1748 80.356C32.1662 80.356 32.1576 80.356 32.1497 80.3552H28.4346C28.7074 81.0435 29.0061 81.5555 29.3369 81.9059C29.9139 82.4507 30.8687 82.7267 32.1748 82.7267C33.4934 82.7267 34.4389 82.4499 34.9868 81.9012C35.5246 81.332 35.9793 80.3262 36.3776 78.8234L39.3503 67.3024H36.7586Z" fill="white"/>
<path d="M107.827 67.3025H107.823C106.434 67.3049 105.307 68.4298 105.305 69.819V82.4547H107.926V67.3025H107.827Z" fill="white"/>
<path d="M59.8468 72.5909C59.8468 71.3625 58.968 70.3394 57.8054 70.1144C57.4856 70.8678 57.3225 71.756 57.3225 72.7791V82.4546H59.8445V72.7791C59.8445 72.7156 59.8453 72.6529 59.8468 72.5909Z" fill="white"/>
<path d="M63.8847 67.0004C61.133 67.0004 59.2061 67.8055 58.1807 69.4016H63.8847C66.7351 69.4016 67.864 70.2851 67.864 72.7789V82.4552H70.4166V72.7789C70.4166 68.8905 68.1996 67.0004 63.8847 67.0004" fill="white"/>
<path d="M91.558 79.6025C92.6242 79.3078 93.4066 78.331 93.4066 77.1715C93.4066 76.9559 93.3799 76.7466 93.329 76.5467V76.5467L90.9513 67.3023H88.3909L91.3323 78.8241C91.4059 79.1 91.4804 79.3595 91.558 79.6025" fill="white"/>
<path d="M100.149 67.3024L97.2243 78.792C96.8559 80.1412 96.4129 80.356 95.5655 80.356C95.5569 80.356 95.5482 80.356 95.5404 80.3552H91.8245C92.0981 81.0435 92.3967 81.5555 92.7276 81.9059C93.3046 82.4507 94.2586 82.7267 95.5655 82.7267C96.8841 82.7267 97.8287 82.4499 98.3775 81.9012C98.9145 81.332 99.37 80.3262 99.7682 78.8234L102.741 67.3024H100.149Z" fill="white"/>
<path d="M117.767 69.288H121.271C121.025 68.6569 120.76 68.1819 120.448 67.851C119.871 67.3062 119.073 67.0004 117.767 67.0004C116.449 67.0004 115.651 67.3078 115.103 67.8565C114.566 68.4249 114.174 69.4315 113.775 70.9335L110.534 82.4545H113.183L116.366 70.8481C116.734 69.4989 116.968 69.288 117.767 69.288" fill="white"/>
<path d="M121.787 70.9329C121.702 70.6138 121.618 70.3175 121.531 70.0431C120.48 70.3473 119.711 71.317 119.711 72.4663C119.711 72.6983 119.743 72.9233 119.801 73.1365V73.1365L120.564 75.8937H117.917C116.576 75.8937 115.48 76.9387 115.399 78.2589H121.219L122.381 82.4546H125L121.787 70.9329Z" fill="white"/>
</g>
</svg>
