<svg width="150" height="150" viewBox="0 0 150 150" fill="none" xmlns="http://www.w3.org/2000/svg">
<path d="M103.663 122.378C103.129 122.378 102.617 122.224 102.186 121.947C102.186 121.947 101.067 121.252 99.3414 120.082C94.3034 116.682 81.9534 108.302 74.9923 103.374C68.3238 108.098 56.9097 115.848 50.6506 120.082C48.9104 121.259 47.7916 121.954 47.7843 121.961C47.3748 122.232 46.8703 122.378 46.3292 122.378C45.8393 122.378 45.3494 122.246 44.9765 122.027C44.6328 121.822 44.3404 121.603 44.2672 121.552C44.1356 121.471 43.9309 121.318 43.6019 121.033C43.0023 120.513 42.4977 119.439 42.8048 118.32C42.8048 118.312 43.1119 117.077 43.6969 115.037C45.7881 107.776 49.6269 94.5411 52.0692 86.7173C45.5103 81.8328 34.6154 73.3728 28.6561 68.7297C26.9963 67.4355 25.9945 66.5873 25.9872 66.58C25.1317 65.8999 24.8685 64.73 25.0586 63.933C25.1463 63.5601 25.2487 63.2384 25.2852 63.1287C25.3218 62.9678 25.4095 62.7192 25.5777 62.3171C25.8848 61.5859 26.7476 60.7742 27.9103 60.723C27.9029 60.723 29.1899 60.628 31.3103 60.5549C38.871 60.2989 52.6614 59.8602 60.829 59.7652C63.4467 52.029 68.1264 39.0429 70.7002 31.9356C71.4241 29.9321 71.914 28.7403 71.9213 28.7329C72.3015 27.7166 73.3325 27.1024 74.1515 27.0292C74.4586 27 74.7437 27 74.89 27H75.0143H75.102C75.2556 27 75.5407 27.0073 75.8478 27.0292C76.6375 27.0951 77.6758 27.6654 78.0853 28.7549C78.2023 29.0401 78.6776 30.2465 79.2918 31.9356C81.873 39.0575 86.56 52.0583 89.163 59.7652C97.3452 59.8602 111.128 60.2989 118.682 60.5549C120.809 60.628 122.089 60.723 122.104 60.723C123.244 60.7742 124.107 61.5859 124.414 62.3171C124.553 62.6388 124.656 62.9532 124.699 63.0921C124.787 63.2822 124.853 63.5528 124.941 63.9257C125.124 64.7008 124.904 65.8634 123.99 66.5873C123.815 66.7335 122.85 67.5378 121.336 68.7151C115.369 73.3655 104.474 81.8255 97.9228 86.7099C100.365 94.5265 104.204 107.769 106.288 115.029C106.88 117.091 107.187 118.334 107.187 118.342C107.494 119.439 106.982 120.506 106.383 121.025C106.105 121.267 105.842 121.457 105.739 121.53C105.593 121.661 105.359 121.815 105.015 122.02C104.643 122.254 104.153 122.378 103.663 122.378Z" fill="white"/>
<path d="M57.1363 85.0648L46.4096 118.027C46.3876 118.086 46.4095 118.144 46.4607 118.181C46.4607 118.181 46.5412 118.254 46.6216 118.313C46.7093 118.371 46.7971 118.43 46.7971 118.43C46.8483 118.466 46.9141 118.466 46.958 118.43L74.9922 98.0436L103.019 118.43C103.063 118.466 103.129 118.466 103.18 118.43C103.18 118.43 103.275 118.378 103.356 118.313C103.443 118.247 103.516 118.181 103.516 118.181C103.568 118.144 103.59 118.079 103.568 118.027L92.8409 85.0721L120.89 64.7155C120.941 64.6789 120.963 64.6204 120.941 64.5619C120.941 64.5619 120.919 64.4596 120.882 64.3572C120.853 64.2548 120.809 64.1598 120.809 64.1598C120.795 64.1013 120.736 64.0647 120.678 64.0647L86.0188 64.0793L75.3359 31.1021C75.3213 31.0436 75.2628 31.0071 75.2043 31.0071C75.2043 31.0071 75.1019 30.9998 74.9922 30.9998C74.8899 30.9998 74.7802 31.0071 74.7802 31.0071C74.7144 31.0071 74.6632 31.0509 74.6486 31.1021L63.9584 64.072L29.2994 64.0574C29.2409 64.0574 29.1897 64.094 29.1678 64.1524C29.1678 64.1524 29.1239 64.2475 29.0947 64.3499C29.0654 64.4522 29.0435 64.5546 29.0435 64.5546C29.0216 64.6131 29.0435 64.6789 29.0947 64.7082L57.1363 85.0648Z" fill="#E3000F"/>
</svg>
