<svg width="150" height="150" viewBox="0 0 150 150" fill="none" xmlns="http://www.w3.org/2000/svg">
<path d="M63.2143 39.6551V26.3812C54.1458 28.5764 46.0434 33.271 39.6552 39.6551H63.2143" fill="#469DD7"/>
<path d="M86.7775 39.6551V26.3812C95.8501 28.5764 103.957 33.271 110.341 39.6551H86.7775" fill="#0081C8"/>
<path d="M75.0411 25C70.9838 25 66.9963 25.4727 63.2143 26.3812V39.6551H86.7776V26.3936C82.9997 25.4851 79.0903 25 75.0411 25" fill="#A0C2E4"/>
<path d="M86.7775 110.345V123.615C95.8501 121.419 103.957 116.725 110.341 110.345H86.7775" fill="#0081C8"/>
<path d="M63.2143 110.345V123.615C54.1458 121.419 46.0434 116.725 39.6552 110.345H63.2143" fill="#0081C8"/>
<path d="M74.9548 125C79.0163 125 82.9996 124.527 86.7775 123.615V110.345H63.2142V123.602C66.9962 124.515 70.8974 125 74.9548 125" fill="#469DD7"/>
<path d="M110.341 63.2142H123.615C121.419 54.1498 116.729 46.0433 110.341 39.655V63.2142" fill="#0081C8"/>
<path d="M110.341 86.7816H123.615C121.419 95.8501 116.729 103.957 110.341 110.345V86.7816" fill="#0081C8"/>
<path d="M125 75.0411C125 70.9837 124.527 66.9921 123.615 63.2142H110.341V86.7816H123.598C124.515 83.0038 125 79.0944 125 75.0411" fill="#469DD7"/>
<path d="M39.6551 86.7816H26.3854C28.5723 95.8501 33.271 103.957 39.6551 110.345V86.7816" fill="#0081C8"/>
<path d="M39.6551 63.2142H26.3854C28.5723 54.1498 33.271 46.0433 39.6551 39.655V63.2142" fill="#469DD7"/>
<path d="M25 74.9548C25 79.0163 25.4727 83.0038 26.3853 86.7816H39.6551V63.2142H26.3977C25.481 66.9921 25 70.9056 25 74.9548" fill="#A0C2E4"/>
<path d="M39.6551 63.2143H63.2142V39.651H39.6551V63.2143Z" fill="#93CC84"/>
<path d="M39.6551 86.7816H63.2142V63.2142H39.6551V86.7816Z" fill="#C6E3BD"/>
<path d="M39.6551 110.345H63.2142V86.7816H39.6551V110.345Z" fill="#6EBF5D"/>
<path d="M63.2142 63.2143H86.7775V39.651H63.2142V63.2143Z" fill="#C6E3BD"/>
<path d="M63.2142 86.7816H86.7775V63.2142H63.2142V86.7816Z" fill="#E4105B"/>
<path d="M63.2142 110.345H86.7775V86.7816H63.2142V110.345Z" fill="#93CC84"/>
<path d="M86.7775 63.2143H110.341V39.651H86.7775V63.2143Z" fill="#6EBF5D"/>
<path d="M86.7775 86.7816H110.341V63.2142H86.7775V86.7816Z" fill="#93CC84"/>
<path d="M86.7775 110.345H110.341V86.7816H86.7775V110.345Z" fill="#6EBF5D"/>
</svg>
