<!-- by TradingView --><svg width="56" height="56" xmlns="http://www.w3.org/2000/svg"><path fill="#00872B" d="M0 0h56v56H0z"/><path d="M51 25v.236s-.256.102-.256.402l.002 5.04a.323.323 0 01-.322.322h-.99l-2.179-3.438s.046.284.046.642V31H46v-6h.876c.399 0 .69.165.9.494l1.823 2.872s-.059-.177-.059-.65V25H51zm-23 0v5.678a.323.323 0 01-.322.322h-1.166l-2.178-3.438s.045.284.045.642V31H23v-6h.954c.4 0 .69.165.9.494l1.823 2.872s-.058-.177-.058-.65V25H28zm-15.103 0h-1.613v2.3H10V25H8v.236s.256.096.256.402V31H10v-2.604h1.284V31H13v-6h-.103zm5.225 0h-3.595v5.463c0 .312.296.537.607.537h2.988a.324.324 0 00.323-.323V30h-2.202a.244.244 0 01-.243-.244v-1.36h1.978v-1.097H16V26h2.445v-.677a.324.324 0 00-.323-.323zm3.406 0H20v5.678c0 .177.146.322.323.322h1.205v-6zm22.876 0H40.81v5.463c0 .3.295.537.605.537h2.989a.324.324 0 00.323-.323V30h-2.062a.244.244 0 01-.242-.244v-1.36h1.837v-1.097h-1.837V26h2.304v-.677a.324.324 0 00-.323-.323zm-11.355 0h-3.594v5.463c0 .3.295.537.606.537h2.988a.324.324 0 00.323-.323V30h-2.13a.244.244 0 01-.242-.244v-1.36h2v-1.097h-2V26h2.372v-.677A.324.324 0 0033.05 25zm6.827 0h-1.164a.85.85 0 00-.717.327l-1.644 1.895V25h-1.613v5.678c0 .177.145.322.322.322h1.291v-2.721l1.421 2.224c.214.333.424.497.908.497h1.326l-2.264-3.54" fill="#fff"/><path d="M5.594 26.864c-.082.064-.188-.02-.157-.121.045-.144.862-2.854.862-2.854l-2.256-1.762c-.081-.065-.04-.198.06-.198h2.79s.818-2.707.86-2.852c.03-.102.164-.104.195 0 .043.146.862 2.852.862 2.852h2.79c.098 0 .14.133.058.198l-1.345 1.051H8.72l-.492-1.627-.492 1.627H6.143l1.289 1.006-.493 1.628-1.345 1.052z" fill="#ED1C24"/></svg>