<!-- by TradingView --><svg width="56" height="56" viewBox="0 0 56 56" xmlns="http://www.w3.org/2000/svg"><path fill="#3266BC" d="M0 0h56v56H0z"/><path fill-rule="evenodd" d="M28 12c8.8 0 16 7.2 16 16.01C44 36.81 36.8 44 28 44s-16-7.18-16-15.99S19.2 12 28 12zm-10.71 7.4l5.74 14.9 2.1-5.3h5.51l2.1 5.3 5.8-15.07a13.8 13.8 0 0 0-3.63-3.1L30.88 27H25.2l-4.04-10.91c-1.48.85-2.79 1.98-3.87 3.32zm23.57 3.75L34.32 40.2a13.77 13.77 0 0 0 6.54-17.05zM31.47 41.3l-.04-.35-3.55-9.19-3.55 9.2-.01.28a13.92 13.92 0 0 0 7.15.06zM21.4 40.05l-6.37-16.6a13.72 13.72 0 0 0 6.37 16.6zM28 14.27c1.2 0 2.39.15 3.52.45l-3.47 9.6-3.5-9.62c1.1-.28 2.26-.43 3.45-.43z" fill="#fff"/></svg>