<!-- by TradingView --><svg width="56" height="56" viewBox="0 0 56 56" xmlns="http://www.w3.org/2000/svg"><path fill="#F0F3FA" d="M0 0h56v56H0z"/><path d="M28 44a16 16 0 1 0 0-32 16 16 0 0 0 0 32Z" fill="#007AC3"/><path d="M17 17h22v22H17V17Z" fill="#85BC20"/><path d="M12 24h32v8H12v-8Z" fill="#A6D1EA"/><path d="M24 24h20v8H24v-8Z" fill="#409BD2"/><path d="M24 12h8v32h-8V12Z" fill="#A6D1EA"/><path d="M24 24h8v20h-8V24Z" fill="#409BD2"/><path d="M24 24h15v15H24V24Z" fill="#A4CD58"/><path d="M17 17h15v15H17V17Z" fill="#D4E8B1"/><path d="M12.42 22.76A16.7 16.7 0 0 1 24 12v12H12l.42-1.24Z" fill="#409BD2"/><path d="M24 24h8v8h-8v-8Z" fill="#E5202E"/><path d="M17 17h7v7h-7v-7Z" fill="#A4CD58"/><path d="M32 32h7v7h-7v-7Z" fill="#85BC20"/><path fill-rule="evenodd" d="M28 44a16 16 0 1 0 0-32 16 16 0 0 0 0 32Zm0 1a17 17 0 1 0 0-34 17 17 0 0 0 0 34Z" fill="#F0F3FA"/></svg>